<?xml version="1.0" encoding="UTF-8" standalone="no"?>
<!-- Created with Inkscape (http://www.inkscape.org/) -->

<svg
   xmlns:dc="http://purl.org/dc/elements/1.1/"
   xmlns:cc="http://creativecommons.org/ns#"
   xmlns:rdf="http://www.w3.org/1999/02/22-rdf-syntax-ns#"
   xmlns:svg="http://www.w3.org/2000/svg"
   xmlns="http://www.w3.org/2000/svg"
   xmlns:sodipodi="http://sodipodi.sourceforge.net/DTD/sodipodi-0.dtd"
   xmlns:inkscape="http://www.inkscape.org/namespaces/inkscape"
   width="1052.3622"
   height="744.09448"
   id="svg3128"
   version="1.1"
   inkscape:version="0.48.4 r9939"
   sodipodi:docname="robot-2.svg">
  <defs
     id="defs3130" />
  <sodipodi:namedview
     id="base"
     pagecolor="#ffffff"
     bordercolor="#666666"
     borderopacity="1.0"
     inkscape:pageopacity="0.0"
     inkscape:pageshadow="2"
     inkscape:zoom="0.35"
     inkscape:cx="350"
     inkscape:cy="520"
     inkscape:document-units="px"
     inkscape:current-layer="layer1"
     showgrid="false"
     inkscape:window-width="1600"
     inkscape:window-height="841"
     inkscape:window-x="0"
     inkscape:window-y="27"
     inkscape:window-maximized="1" />
  <metadata
     id="metadata3133">
    <rdf:RDF>
      <cc:Work
         rdf:about="">
        <dc:format>image/svg+xml</dc:format>
        <dc:type
           rdf:resource="http://purl.org/dc/dcmitype/StillImage" />
        <dc:title></dc:title>
      </cc:Work>
    </rdf:RDF>
  </metadata>
  <g
     inkscape:label="Ebene 1"
     inkscape:groupmode="layer"
     id="layer1"
     transform="translate(0,-308.2677)">
    <g
       id="g2685"
       transform="matrix(4.4291341,0,0,4.4012478,1655.4111,-768.87339)">
      <path
         inkscape:connector-curvature="0"
         style="fill:#000000"
         d="m -311.05421,254.50961 c -16.40132,15.98699 -26.59374,38.3045 -26.59374,63 0,48.576 39.424,88.00001 87.99999,88 48.576,0 88,-39.424 88,-88 0,-24.69121 -10.19744,-47.01359 -26.59375,-63 l -122.8125,0 z"
         id="path2687" />
      <path
         sodipodi:type="arc"
         style="fill:#0000ff"
         id="path2689"
         sodipodi:cx="-62.516972"
         sodipodi:cy="112.49392"
         sodipodi:rx="22.101959"
         sodipodi:ry="23.996412"
         d="m -40.415012,112.49392 c 0,13.25285 -9.895385,23.99641 -22.10196,23.99641 -12.206575,0 -22.101959,-10.74356 -22.101959,-23.99641 0,-13.252853 9.895384,-23.996413 22.101959,-23.996413 12.206575,0 22.10196,10.74356 22.10196,23.996413 z"
         transform="matrix(1.1311214,0,0,1.0418224,-178.93367,200.31093)" />
    </g>
    <path
       sodipodi:type="arc"
       style="fill:#00ff00"
       id="path2691"
       sodipodi:cx="-209.02139"
       sodipodi:cy="177.53683"
       sodipodi:rx="23.364929"
       sodipodi:ry="23.364929"
       d="m -185.65646,177.53683 a 23.364929,23.364929 0 1 1 -46.72986,0 23.364929,23.364929 0 1 1 46.72986,0 z"
       transform="matrix(3.791267,0,0,3.7673968,1114.189,-200.52657)" />
    <path
       transform="matrix(3.791267,0,0,3.7673968,1570.0965,-200.52657)"
       d="m -185.65646,177.53683 a 23.364929,23.364929 0 1 1 -46.72986,0 23.364929,23.364929 0 1 1 46.72986,0 z"
       sodipodi:ry="23.364929"
       sodipodi:rx="23.364929"
       sodipodi:cy="177.53683"
       sodipodi:cx="-209.02139"
       id="path2693"
       style="fill:#00ff00"
       sodipodi:type="arc" />
    <path
       sodipodi:type="arc"
       style="fill:#00ff00;fill-opacity:1"
       id="path2695"
       sodipodi:cx="-209.02139"
       sodipodi:cy="177.53683"
       sodipodi:rx="23.364929"
       sodipodi:ry="23.364929"
       d="m -185.65646,177.53683 a 23.364929,23.364929 0 1 1 -46.72986,0 23.364929,23.364929 0 1 1 46.72986,0 z"
       transform="matrix(3.791267,0,0,3.7673968,1193.9134,188.57828)" />
    <path
       sodipodi:type="arc"
       style="fill:#00ff00;fill-opacity:1"
       id="path2697"
       sodipodi:cx="-209.02139"
       sodipodi:cy="177.53683"
       sodipodi:rx="23.364929"
       sodipodi:ry="23.364929"
       d="m -185.65646,177.53683 a 23.364929,23.364929 0 1 1 -46.72986,0 23.364929,23.364929 0 1 1 46.72986,0 z"
       transform="matrix(3.791267,0,0,3.7673968,1490.3721,188.57828)" />
  </g>
</svg>
