<?xml version="1.0" encoding="UTF-8" standalone="no"?>
<!-- Created with Inkscape (http://www.inkscape.org/) -->

<svg
   xmlns:dc="http://purl.org/dc/elements/1.1/"
   xmlns:cc="http://creativecommons.org/ns#"
   xmlns:rdf="http://www.w3.org/1999/02/22-rdf-syntax-ns#"
   xmlns:svg="http://www.w3.org/2000/svg"
   xmlns="http://www.w3.org/2000/svg"
   xmlns:sodipodi="http://sodipodi.sourceforge.net/DTD/sodipodi-0.dtd"
   xmlns:inkscape="http://www.inkscape.org/namespaces/inkscape"
   width="1052.3622"
   height="744.09448"
   id="svg3128"
   version="1.1"
   inkscape:version="0.48.4 r9939"
   sodipodi:docname="Neues Dokument 2">
  <defs
     id="defs3130" />
  <sodipodi:namedview
     id="base"
     pagecolor="#ffffff"
     bordercolor="#666666"
     borderopacity="1.0"
     inkscape:pageopacity="0.0"
     inkscape:pageshadow="2"
     inkscape:zoom="0.35"
     inkscape:cx="350"
     inkscape:cy="520"
     inkscape:document-units="px"
     inkscape:current-layer="layer1"
     showgrid="false"
     inkscape:window-width="1600"
     inkscape:window-height="841"
     inkscape:window-x="0"
     inkscape:window-y="27"
     inkscape:window-maximized="1" />
  <metadata
     id="metadata3133">
    <rdf:RDF>
      <cc:Work
         rdf:about="">
        <dc:format>image/svg+xml</dc:format>
        <dc:type
           rdf:resource="http://purl.org/dc/dcmitype/StillImage" />
        <dc:title></dc:title>
      </cc:Work>
    </rdf:RDF>
  </metadata>
  <g
     inkscape:label="Ebene 1"
     inkscape:groupmode="layer"
     id="layer1"
     transform="translate(0,-308.2677)">
    <g
       id="g2683"
       transform="matrix(4.4291341,0,0,4.4012478,917.0217,233.6964)">
      <g
         transform="translate(166.71192,-227.79217)"
         id="g2685">
        <path
           id="path2687"
           d="m -311.05421,254.50961 c -16.40132,15.98699 -26.59374,38.3045 -26.59374,63 0,48.576 39.424,88.00001 87.99999,88 48.576,0 88,-39.424 88,-88 0,-24.69121 -10.19744,-47.01359 -26.59375,-63 l -122.8125,0 z"
           style="fill:#000000"
           inkscape:connector-curvature="0" />
        <path
           transform="matrix(1.1311214,0,0,1.0418224,-178.93367,200.31093)"
           d="m -40.415012,112.49392 c 0,13.25285 -9.895385,23.99641 -22.10196,23.99641 -12.206575,0 -22.101959,-10.74356 -22.101959,-23.99641 0,-13.252853 9.895384,-23.996413 22.101959,-23.996413 12.206575,0 22.10196,10.74356 22.10196,23.996413 z"
           sodipodi:ry="23.996412"
           sodipodi:rx="22.101959"
           sodipodi:cy="112.49392"
           sodipodi:cx="-62.516972"
           id="path2689"
           style="fill:#0000ff"
           sodipodi:type="arc" />
      </g>
      <path
         transform="matrix(0.8559838,0,0,0.8559838,44.516,-98.65906)"
         d="m -185.65646,177.53683 c 0,12.9041 -10.46084,23.36493 -23.36493,23.36493 -12.9041,0 -23.36493,-10.46083 -23.36493,-23.36493 0,-12.90409 10.46083,-23.36492 23.36493,-23.36492 12.90409,0 23.36493,10.46083 23.36493,23.36492 z"
         sodipodi:ry="23.364929"
         sodipodi:rx="23.364929"
         sodipodi:cy="177.53683"
         sodipodi:cx="-209.02139"
         id="path2691"
         style="fill:#00ff00"
         sodipodi:type="arc" />
      <path
         sodipodi:type="arc"
         style="fill:#00ff00"
         id="path2693"
         sodipodi:cx="-209.02139"
         sodipodi:cy="177.53683"
         sodipodi:rx="23.364929"
         sodipodi:ry="23.364929"
         d="m -185.65646,177.53683 c 0,12.9041 -10.46084,23.36493 -23.36493,23.36493 -12.9041,0 -23.36493,-10.46083 -23.36493,-23.36493 0,-12.90409 10.46083,-23.36492 23.36493,-23.36492 12.90409,0 23.36493,10.46083 23.36493,23.36492 z"
         transform="matrix(0.8559838,0,0,0.8559838,147.44978,-98.65906)" />
      <path
         transform="matrix(0.8559838,0,0,0.8559838,62.516,-10.25121)"
         d="m -185.65646,177.53683 c 0,12.9041 -10.46084,23.36493 -23.36493,23.36493 -12.9041,0 -23.36493,-10.46083 -23.36493,-23.36493 0,-12.90409 10.46083,-23.36492 23.36493,-23.36492 12.90409,0 23.36493,10.46083 23.36493,23.36492 z"
         sodipodi:ry="23.364929"
         sodipodi:rx="23.364929"
         sodipodi:cy="177.53683"
         sodipodi:cx="-209.02139"
         id="path2695"
         style="fill:#ff00ff"
         sodipodi:type="arc" />
      <path
         transform="matrix(0.8559838,0,0,0.8559838,129.44978,-10.25121)"
         d="m -185.65646,177.53683 c 0,12.9041 -10.46084,23.36493 -23.36493,23.36493 -12.9041,0 -23.36493,-10.46083 -23.36493,-23.36493 0,-12.90409 10.46083,-23.36492 23.36493,-23.36492 12.90409,0 23.36493,10.46083 23.36493,23.36492 z"
         sodipodi:ry="23.364929"
         sodipodi:rx="23.364929"
         sodipodi:cy="177.53683"
         sodipodi:cx="-209.02139"
         id="path2697"
         style="fill:#ff00ff"
         sodipodi:type="arc" />
    </g>
  </g>
</svg>
