<?xml version="1.0" encoding="UTF-8" standalone="no"?>
<!DOCTYPE svg PUBLIC "-//W3C//DTD SVG 1.1//EN" "http://www.w3.org/Graphics/SVG/1.1/DTD/svg11.dtd"> 
<svg
    xmlns="http://www.w3.org/2000/svg"
    version="1.1"
    width="1500"
    height="900">
    <defs>
        <style type="text/css">
            text{font-size:14px;}
        </style>
        <marker id="pf1"
                viewBox="0 0 12 12" refX="0" refY="5"
                markerUnits="strokeWidth"
                markerWidth="5" markerHeight="5"
                fill="red"
                orient="auto">
            <path d="M 0,0 l 10,5 l -10,5 z" />
        </marker>
        <marker id="pf2"
                viewBox="0 0 10 10" refX="0" refY="5"
                markerUnits="strokeWidth"
                markerWidth="10" markerHeight="10"
                orient="auto">
            <path d="M 0,0 l 10,5 l -10,5 z" />
        </marker>
        <pattern id="grid" x="50" y="50" width="100" height="100" patternUnits="userSpaceOnUse">
            <rect id="area" x="0" y="0" width="100" height="100" fill="none" stroke-width="0.5" stroke="black" />
        </pattern>
    
        <pattern id="mpsM" x="0" y="0" width="35" height="70">
            <rect x="0" y="0" width="35" height="70" fill="magenta" stroke-width="1" stroke="black"/>
            <rect y="30" width="35" height="6" fill="lightgrey" stroke-width="1" stroke="black"/>
            <rect y="37" width="15" height="32" fill="lightgrey" stroke-width="1" stroke="black"/>
            <circle cx="2" cy="43" r="4" fill="white" stroke-width="1" stroke="black"/>
            <circle cx="2" cy="53" r="4" fill="white" stroke-width="1" stroke="black"/>
            <circle cx="2" cy="63" r="4" fill="white" stroke-width="1" stroke="black"/>
        </pattern>
        <pattern id="mpsC" x="0" y="0" width="35" height="70">
            <rect x="0" y="0" width="35" height="70" fill="cyan" stroke-width="1" stroke="black"/>
            <rect y="30" width="35" height="6" fill="lightgrey" stroke-width="1" stroke="black"/>
            <rect y="37" width="15" height="32" fill="lightgrey" stroke-width="1" stroke="black"/>
            <circle cx="2" cy="43" r="4" fill="white" stroke-width="1" stroke="black"/>
            <circle cx="2" cy="53" r="4" fill="white" stroke-width="1" stroke="black"/>
            <circle cx="2" cy="63" r="4" fill="white" stroke-width="1" stroke="black"/>
        </pattern>
    </defs>
    
    <!--Lines and Corners-->
    <polyline id="cornerLeftTop"
              points="50,200 50,50 1450,50 1450,200" 
              style="fill:none;stroke:#0000ff;stroke-width:5"/>
    <polyline id="cornerLeftBottom"
              points="50,650 50,750 250,750"
              style="fill:none;stroke:#0000ff;stroke-width:5"/>
    <polyline id="cornerRightBottom" 
              points="1250,750 1450,750 1450,650"
              style="fill:none;stroke:#0000ff;stroke-width:5"/>
    <polyline id="edgeBottomLeft" 
              points="50,850 350,850 350,750"
              style="fill:none;stroke:#0000ff;stroke-width:5"/>
    <polyline id="edgeBottomRight" 
              points="1150,750 1150,850 1450,850"
              style="fill:none;stroke:#0000ff;stroke-width:5"/>
    <polyline id="edgeBottomMiddle"
              points="550,850 950,850"
              style="fill:none;stroke:#0000ff;stroke-width:5"/>
       
    <!--Axes and Coordinatesystem-->
    <polyline points="750,865 750,810"
              marker-end="url(#pf1)"  style="fill:none;stroke:#ff0000;stroke-width:4" />
    <polyline points="735,850 800,850"
              marker-end="url(#pf1)"  style="fill:none;stroke:#ff0000;stroke-width:4" /> 
    <text x="785" y="865" style="fill:red;">x</text>
    <text x="755" y="825" style="fill:red;">y</text>
    <text x="725" y="865">(0,0)</text>
    
    <text x="150" y="720" style="fill:magenta; font-size:20" font-weight = "bold">MAGENTA</text>
    <text x="1270" y="730" style="fill:cyan; font-size:20" font-weight = "bold">CYAN</text>
    <!--Zones grid-->
    <rect id="field"
          x="50"
          y="50"
          width="1400"
          height="800"
          stroke-width="0"
          stroke="black"
          fill="url(#grid)" />
    
    <!--Machines-->   
    <rect width="35" height="70" fill="url(#mpsC)" stroke-width="1" stroke="black"  transform = "translate(585,65) rotate(0)"/> 
    <text x="590" y="85">180°</text>
    <rect width="35" height="70" fill="url(#mpsM)" stroke-width="1" stroke="black"  transform = "translate(885,65) rotate(0)"/> 
    <text x="890" y="85">180°</text>
  
    <rect width="35" height="70" fill="url(#mpsM)" stroke-width="1" stroke="black"  transform = "translate(420,235)  rotate(180)"/>
    <text x="395" y="225">0°</text> 
    <rect width="35" height="70" fill="url(#mpsC)" stroke-width="1" stroke="black"  transform = "translate(1120,235) rotate(180)"/>
    <text x="1090" y="225">0°</text>
    
    <rect width="35" height="70" fill="url(#mpsM)" stroke-width="1" stroke="black"  transform = "translate(65,315) rotate(-90)"/>
    <text x="68" y="305">270°</text>
    <rect width="35" height="70" fill="url(#mpsC)" stroke-width="1" stroke="black"  transform = "translate(1435,280) rotate(90)"/>
    <text x="1410" y="305">90°</text>

    <rect width="35" height="70" fill="url(#mpsC)" stroke-width="1" stroke="black"  transform = "translate(265,390) rotate(-45)"/>
    <text x="275" y="395">225°</text>   
    <rect width="35" height="70" fill="url(#mpsM)" stroke-width="1" stroke="black"  transform = "translate(1190,440) rotate(-135)"/>
    <text x="1175" y="420">325°</text>  

    <rect width="35" height="70" fill="url(#mpsM)" stroke-width="1" stroke="black"  transform = "translate(665,515) rotate(-90)"/>
    <text x="668" y="505">270°</text>
    <rect width="35" height="70" fill="url(#mpsC)" stroke-width="1" stroke="black"  transform = "translate(765,515) rotate(-90)"/>
    <text x="768" y="505">270°</text>

    <rect width="35" height="70" fill="url(#mpsM)" stroke-width="1" stroke="black"  transform = "translate(515,565) rotate(45)"/>
    <text x="502" y="590">135°</text>   
    <rect width="35" height="70" fill="url(#mpsC)" stroke-width="1" stroke="black"  transform = "translate(965,585) rotate(-45)"/>
    <text x="975" y="590">225°</text>      
    
    <!--Zone&Field Size Arrows -->
    <text x="20" y="400" transform = "rotate(-90 20 400)">8m</text>
    <polyline points="30,60 30,840" marker-end="url(#pf2)"  style="fill:none;stroke:#000000;" />
    <polyline points="30,840 30,60" marker-end="url(#pf2)"  style="fill:none;stroke:#000000;" />
    
    <text x="540" y="20">14m</text>
    <polyline points="60,30 1440,30" marker-end="url(#pf2)"  style="fill:none;stroke:#000000;" />
    <polyline points="1440,30 60,30" marker-end="url(#pf2)"  style="fill:none;stroke:#000000;" />
    
    <text x="570" y="300" transform = "rotate(-90 570 300)">1m</text>
    <polyline points="580,260 580,340" marker-end="url(#pf2)"  style="fill:none;stroke:#000000;" />
    <polyline points="580,340 580,260" marker-end="url(#pf2)"  style="fill:none;stroke:#000000;" />
    
    <text x="500" y="310">1m</text>
    <polyline points="460,320 540,320" marker-end="url(#pf2)"  style="fill:none;stroke:#000000;" />
    <polyline points="540,320 460,320" marker-end="url(#pf2)"  style="fill:none;stroke:#000000;" />

    <text x="805" y="770">C-Z11</text>
    <text x="805" y="670">C-Z12</text>
    <text x="805" y="570">C-Z13</text>
    <text x="805" y="470">C-Z14</text>
    <text x="805" y="370">C-Z15</text>
    <text x="805" y="270">C-Z16</text>
    <text x="805" y="170">C-Z17</text>
    <text x="805" y="070">C-Z18</text>

    <text x="905" y="770">C-Z21</text>
    <text x="905" y="670">C-Z22</text>
    <text x="905" y="570">C-Z23</text>
    <text x="905" y="470">C-Z24</text>
    <text x="905" y="370">C-Z25</text>
    <text x="905" y="270">C-Z26</text>
    <text x="905" y="170">C-Z27</text>
    <text x="905" y="070">C-Z28</text>
   
    <text x="1005" y="770">C-Z31</text>
    <text x="1005" y="670">C-Z32</text>
    <text x="1005" y="570">C-Z33</text>
    <text x="1005" y="470">C-Z34</text>
    <text x="1005" y="370">C-Z35</text>
    <text x="1005" y="270">C-Z36</text>
    <text x="1005" y="170">C-Z37</text>
    <text x="1005" y="070">C-Z38</text>

   <text x="1105" y="770">C-Z41</text>
    <text x="1105" y="670">C-Z42</text>
    <text x="1105" y="570">C-Z43</text>
    <text x="1105" y="470">C-Z44</text>
    <text x="1105" y="370">C-Z45</text>
    <text x="1105" y="270">C-Z46</text>
    <text x="1105" y="170">C-Z47</text>
    <text x="1105" y="070">C-Z48</text>
    
    <text x="1205" y="770">C-Z51</text>
    <text x="1205" y="670">C-Z52</text>
    <text x="1205" y="570">C-Z53</text>
    <text x="1205" y="470">C-Z54</text>
    <text x="1205" y="370">C-Z55</text>
    <text x="1205" y="270">C-Z56</text>
    <text x="1205" y="170">C-Z57</text>
    <text x="1205" y="070">C-Z58</text>
    
    <text x="1305" y="770">C-Z61</text>
    <text x="1305" y="670">C-Z62</text>
    <text x="1305" y="570">C-Z63</text>
    <text x="1305" y="470">C-Z64</text>
    <text x="1305" y="370">C-Z65</text>
    <text x="1305" y="270">C-Z66</text>
    <text x="1305" y="170">C-Z67</text>
    <text x="1305" y="070">C-Z68</text>
    
    <text x="1400" y="770">C-Z71</text>
    <text x="1400" y="670">C-Z72</text>
    <text x="1400" y="570">C-Z73</text>
    <text x="1400" y="470">C-Z74</text>
    <text x="1400" y="370">C-Z75</text>
    <text x="1400" y="270">C-Z76</text>
    <text x="1400" y="170">C-Z77</text>
    <text x="1400" y="070">C-Z78</text>
 
    <text x="700" y="770">M-Z11</text>
    <text x="700" y="670">M-Z12</text>
    <text x="700" y="570">M-Z13</text>
    <text x="700" y="470">M-Z14</text>
    <text x="700" y="370">M-Z15</text>
    <text x="700" y="270">M-Z16</text>
    <text x="700" y="170">M-Z17</text>
    <text x="700" y="070">M-Z18</text>
   
    <text x="600" y="770">M-Z21</text>
    <text x="600" y="670">M-Z22</text>
    <text x="600" y="570">M-Z23</text>
    <text x="600" y="470">M-Z24</text>
    <text x="600" y="370">M-Z25</text>
    <text x="600" y="270">M-Z26</text>
    <text x="600" y="170">M-Z27</text>
    <text x="600" y="070">M-Z28</text>
    <text x="500" y="770">M-Z31</text>
    <text x="500" y="670">M-Z32</text>
    <text x="500" y="570">M-Z33</text>
    <text x="500" y="470">M-Z34</text>
    <text x="500" y="370">M-Z35</text>
    <text x="500" y="270">M-Z36</text>
    <text x="500" y="170">M-Z37</text>
    <text x="500" y="070">M-Z38</text>
    
    <text x="400" y="770">M-Z41</text>
    <text x="400" y="670">M-Z42</text>
    <text x="400" y="570">M-Z43</text>
    <text x="400" y="470">M-Z44</text>
    <text x="400" y="370">M-Z45</text>
    <text x="400" y="270">M-Z46</text>
    <text x="400" y="170">M-Z47</text>
    <text x="400" y="070">M-Z48</text>
    <text x="300" y="770">M-Z51</text>
    <text x="300" y="670">M-Z52</text>
    <text x="300" y="570">M-Z53</text>
    <text x="300" y="470">M-Z54</text>
    <text x="300" y="370">M-Z55</text>
    <text x="300" y="270">M-Z56</text>
    <text x="300" y="170">M-Z57</text>
    <text x="300" y="070">M-Z58</text>

    <text x="200" y="770">M-Z61</text>
    <text x="200" y="670">M-Z62</text>
    <text x="200" y="570">M-Z63</text>
    <text x="200" y="470">M-Z64</text>
    <text x="200" y="370">M-Z65</text>
    <text x="200" y="270">M-Z66</text>
    <text x="200" y="170">M-Z67</text>
    <text x="200" y="070">M-Z68</text>            
    
    <text x="100" y="770">M-Z71</text>
    <text x="100" y="670">M-Z72</text>
    <text x="100" y="570">M-Z73</text>
    <text x="100" y="470">M-Z74</text>
    <text x="100" y="370">M-Z75</text>
    <text x="100" y="270">M-Z76</text>
    <text x="100" y="170">M-Z77</text>
    <text x="100" y="070">M-Z78</text>              
        
    <!--Insertian Area and Robotinos-->
    <rect id="insertArea1" x="1152" y="752" width="296" height="96" fill="lightgray"/>
    <rect x="1152" y="652" width="96" height="96" fill="lightpink"/>
    <text x="1220" y="840" font-size = "18" font-weight = "bold">Insertion Area CYAN</text>       
    <rect id="insertArea2" x="52" y="752" width="296" height="96" fill="lightgray"/>
    <rect x="252" y="652" width="96" height="96" fill="lightpink"/>
    <text x="90" y="840" font-size = "18" font-weight = "bold">Insertion Area MAGENTA</text>
    

    
    
    <circle id="robi" cx="100" cy="800" r="23" fill="magenta" stroke-width="1" stroke="black" />
    <circle id="robi" cx="200" cy="800" r="23" fill="magenta" stroke-width="1" stroke="black" />
    <circle id="robi" cx="300" cy="800" r="23" fill="magenta" stroke-width="1" stroke="black" />
    <circle id="robi" cx="1200" cy="800" r="23" fill="cyan" stroke-width="1" stroke="black" />
    <circle id="robi" cx="1300" cy="800" r="23" fill="cyan" stroke-width="1" stroke="black" />
    <circle id="robi" cx="1400" cy="800" r="23" fill="cyan" stroke-width="1" stroke="black" />
    
    <text x="370" y="820">still in field</text>
    <circle id="robi" cx="400" cy="850" r="23" fill="green" stroke-width="1" stroke="black" />
    <circle id="robi" cx="500" cy="875" r="23" fill="red" stroke-width="1" stroke="black" />
    <text x="453" y="845">robot out of field</text>    
</svg>