<?xml version="1.0" encoding="UTF-8" standalone="no"?>
<!DOCTYPE svg PUBLIC "-//W3C//DTD SVG 1.1//EN" "http://www.w3.org/Graphics/SVG/1.1/DTD/svg11.dtd"> 
<svg
    xmlns="http://www.w3.org/2000/svg"
    version="1.1"
    width="1500"
    height="900">
    <defs>
        <style type="text/css">
            text{font-size:14px;}
        </style>
        <marker id="pf1"
                viewBox="0 0 12 12" refX="0" refY="5"
                markerUnits="strokeWidth"
                markerWidth="5" markerHeight="5"
                fill="red"
                orient="auto">
            <path d="M 0,0 l 10,5 l -10,5 z" />
        </marker>
        <marker id="pf2"
                viewBox="0 0 10 10" refX="0" refY="5"
                markerUnits="strokeWidth"
                markerWidth="10" markerHeight="10"
                orient="auto">
            <path d="M 0,0 l 10,5 l -10,5 z" />
        </marker>
        <pattern id="grid" x="50" y="50" width="100" height="100" patternUnits="userSpaceOnUse">
            <rect id="area" x="0" y="0" width="100" height="100" fill="none" stroke-width="0.5" stroke="black" />
        </pattern>
    
        <pattern id="mpsM" x="0" y="0" width="35" height="70">
            <rect x="0" y="0" width="35" height="70" fill="magenta" stroke-width="1" stroke="black"/>
            <rect y="30" width="35" height="6" fill="lightgrey" stroke-width="1" stroke="black"/>
            <rect y="37" width="15" height="32" fill="lightgrey" stroke-width="1" stroke="black"/>
            <circle cx="2" cy="43" r="4" fill="white" stroke-width="1" stroke="black"/>
            <circle cx="2" cy="53" r="4" fill="white" stroke-width="1" stroke="black"/>
            <circle cx="2" cy="63" r="4" fill="white" stroke-width="1" stroke="black"/>
        </pattern>
        <pattern id="mpsC" x="0" y="0" width="35" height="70">
            <rect x="0" y="0" width="35" height="70" fill="cyan" stroke-width="1" stroke="black"/>
            <rect y="30" width="35" height="6" fill="lightgrey" stroke-width="1" stroke="black"/>
            <rect y="37" width="15" height="32" fill="lightgrey" stroke-width="1" stroke="black"/>
            <circle cx="2" cy="43" r="4" fill="white" stroke-width="1" stroke="black"/>
            <circle cx="2" cy="53" r="4" fill="white" stroke-width="1" stroke="black"/>
            <circle cx="2" cy="63" r="4" fill="white" stroke-width="1" stroke="black"/>
        </pattern>
    </defs>
    
    <!--Lines and Corners-->
    <polyline id="cornerLeftTop"
              points="50,150 50,50 1450,50 1450,150" 
              style="fill:none;stroke:#0000ff;stroke-width:5"/>
    <polyline id="cornerLeftBottom"
              points="50,650 50,750 250,750"
              style="fill:none;stroke:#0000ff;stroke-width:5"/>
    <polyline id="cornerRightBottom" 
              points="1250,750 1450,750 1450,650"
              style="fill:none;stroke:#0000ff;stroke-width:5"/>
    <polyline id="edgeBottomLeft" 
              points="50,850 350,850 350,750"
              style="fill:none;stroke:#0000ff;stroke-width:5"/>
    <polyline id="edgeBottomRight" 
              points="1150,750 1150,850 1450,850"
              style="fill:none;stroke:#0000ff;stroke-width:5"/>
    <polyline id="edgeBottomMiddle"
              points="550,850 950,850"
              style="fill:none;stroke:#0000ff;stroke-width:5"/>
       
    <!--Axes and Coordinatesystem-->
    <polyline points="750,865 750,810"
              marker-end="url(#pf1)"  style="fill:none;stroke:#ff0000;stroke-width:4" />
    <polyline points="735,850 800,850"
              marker-end="url(#pf1)"  style="fill:none;stroke:#ff0000;stroke-width:4" /> 
    <text x="785" y="865" style="fill:red;">x</text>
    <text x="755" y="825" style="fill:red;">y</text>
    <text x="725" y="865">(0,0)</text>
    
    <text x="150" y="720" style="fill:magenta; font-size:20" font-weight = "bold">MAGENTA</text>
    <text x="1270" y="730" style="fill:cyan; font-size:20" font-weight = "bold">CYAN</text>
    <!--Zones grid-->
    <rect id="field"
          x="50"
          y="50"
          width="1400"
          height="800"
          stroke-width="0"
          stroke="black"
          fill="url(#grid)" />
    
    <!--Machines-->   
    <rect width="35" height="70" fill="url(#mpsC)" stroke-width="1" stroke="black"  transform = "translate(585,65) rotate(0)"/> 
    <text x="590" y="85">270°</text>
    <rect width="35" height="70" fill="url(#mpsM)" stroke-width="1" stroke="black"  transform = "translate(885,65) rotate(0)"/> 
    <text x="890" y="85">270°</text>
  
    <rect width="35" height="70" fill="url(#mpsM)" stroke-width="1" stroke="black"  transform = "translate(420,235)  rotate(180)"/>
    <text x="395" y="225">90°</text> 
    <rect width="35" height="70" fill="url(#mpsC)" stroke-width="1" stroke="black"  transform = "translate(1120,235) rotate(180)"/>
    <text x="1090" y="225">90°</text>
    
    <rect width="35" height="70" fill="url(#mpsM)" stroke-width="1" stroke="black"  transform = "translate(65,315) rotate(-90)"/>
    <text x="75" y="305">0°</text>
    <rect width="35" height="70" fill="url(#mpsC)" stroke-width="1" stroke="black"  transform = "translate(1435,280) rotate(90)"/>
    <text x="1407" y="305">180°</text>

    <rect width="35" height="70" fill="url(#mpsC)" stroke-width="1" stroke="black"  transform = "translate(265,390) rotate(-45)"/>
    <text x="275" y="395">315°</text>   
    <rect width="35" height="70" fill="url(#mpsM)" stroke-width="1" stroke="black"  transform = "translate(1190,440) rotate(-135)"/>
    <text x="1180" y="420">45°</text>  

    <rect width="35" height="70" fill="url(#mpsM)" stroke-width="1" stroke="black"  transform = "translate(665,515) rotate(-90)"/>
    <text x="675" y="505">0°</text>
    <rect width="35" height="70" fill="url(#mpsC)" stroke-width="1" stroke="black"  transform = "translate(765,515) rotate(-90)"/>
    <text x="775" y="505">0°</text>

    <rect width="35" height="70" fill="url(#mpsM)" stroke-width="1" stroke="black"  transform = "translate(515,565) rotate(45)"/>
    <text x="502" y="590">225°</text>   
    <rect width="35" height="70" fill="url(#mpsC)" stroke-width="1" stroke="black"  transform = "translate(965,585) rotate(-45)"/>
    <text x="975" y="590">315°</text>      
    
    <!--Zone&Field Size Arrows -->
    <text x="20" y="400" transform = "rotate(-90 20 400)">8m</text>
    <polyline points="30,60 30,840" marker-end="url(#pf2)"  style="fill:none;stroke:#000000;" />
    <polyline points="30,840 30,60" marker-end="url(#pf2)"  style="fill:none;stroke:#000000;" />
    
    <text x="540" y="20">14m</text>
    <polyline points="60,30 1440,30" marker-end="url(#pf2)"  style="fill:none;stroke:#000000;" />
    <polyline points="1440,30 60,30" marker-end="url(#pf2)"  style="fill:none;stroke:#000000;" />
    
    <text x="590" y="300" transform = "rotate(-90 590 300)">1m</text>
    <polyline points="600,260 600,340" marker-end="url(#pf2)"  style="fill:none;stroke:#000000;" />
    <polyline points="600,340 600,260" marker-end="url(#pf2)"  style="fill:none;stroke:#000000;" />
    
    <text x="500" y="310">1m</text>
    <polyline points="460,320 540,320" marker-end="url(#pf2)"  style="fill:none;stroke:#000000;" />
    <polyline points="540,320 460,320" marker-end="url(#pf2)"  style="fill:none;stroke:#000000;" />

    <text x="825" y="770">C11</text>
    <text x="825" y="670">C12</text>
    <text x="825" y="570">C13</text>
    <text x="825" y="470">C14</text>
    <text x="825" y="370">C15</text>
    <text x="825" y="270">C16</text>
    <text x="825" y="170">C17</text>
    <text x="825" y="070">C18</text>

    <text x="925" y="770">C21</text>
    <text x="925" y="670">C22</text>
    <text x="925" y="570">C23</text>
    <text x="925" y="470">C24</text>
    <text x="925" y="370">C25</text>
    <text x="925" y="270">C26</text>
    <text x="925" y="170">C27</text>
    <text x="925" y="070">C28</text>
    
    <text x="1025" y="770">C31</text>
    <text x="1025" y="670">C32</text>
    <text x="1025" y="570">C33</text>
    <text x="1025" y="470">C34</text>
    <text x="1025" y="370">C35</text>
    <text x="1025" y="270">C36</text>
    <text x="1025" y="170">C37</text>
    <text x="1025" y="070">C38</text>
    
    <text x="1125" y="770">C41</text>
    <text x="1125" y="670">C42</text>
    <text x="1125" y="570">C43</text>
    <text x="1125" y="470">C44</text>
    <text x="1125" y="370">C45</text>
    <text x="1125" y="270">C46</text>
    <text x="1125" y="170">C47</text>
    <text x="1125" y="070">C48</text>
    
    <text x="1225" y="770">C51</text>
    <text x="1225" y="670">C52</text>
    <text x="1225" y="570">C53</text>
    <text x="1225" y="470">C54</text>
    <text x="1225" y="370">C55</text>
    <text x="1225" y="270">C56</text>
    <text x="1225" y="170">C57</text>
    <text x="1225" y="070">C58</text>
    
    <text x="1325" y="770">C61</text>
    <text x="1325" y="670">C62</text>
    <text x="1325" y="570">C63</text>
    <text x="1325" y="470">C64</text>
    <text x="1325" y="370">C65</text>
    <text x="1325" y="270">C66</text>
    <text x="1325" y="170">C67</text>
    <text x="1325" y="070">C68</text>
    
    <text x="1420" y="770">C71</text>
    <text x="1420" y="670">C72</text>
    <text x="1420" y="570">C73</text>
    <text x="1420" y="470">C74</text>
    <text x="1420" y="370">C75</text>
    <text x="1420" y="270">C76</text>
    <text x="1420" y="170">C77</text>
    <text x="1420" y="070">C78</text>

    <text x="720" y="770">M11</text>
    <text x="720" y="670">M12</text>
    <text x="720" y="570">M13</text>
    <text x="720" y="470">M14</text>
    <text x="720" y="370">M15</text>
    <text x="720" y="270">M16</text>
    <text x="720" y="170">M17</text>
    <text x="720" y="070">M18</text>
   
    <text x="620" y="770">M21</text>
    <text x="620" y="670">M22</text>
    <text x="620" y="570">M23</text>
    <text x="620" y="470">M24</text>
    <text x="620" y="370">M25</text>
    <text x="620" y="270">M26</text>
    <text x="620" y="170">M27</text>
    <text x="620" y="070">M28</text>

    <text x="520" y="770">M31</text>
    <text x="520" y="670">M32</text>
    <text x="520" y="570">M33</text>
    <text x="520" y="470">M34</text>
    <text x="520" y="370">M35</text>
    <text x="520" y="270">M36</text>
    <text x="520" y="170">M37</text>
    <text x="520" y="070">M38</text>
    
    <text x="420" y="770">M41</text>
    <text x="420" y="670">M42</text>
    <text x="420" y="570">M43</text>
    <text x="420" y="470">M44</text>
    <text x="420" y="370">M45</text>
    <text x="420" y="270">M46</text>
    <text x="420" y="170">M47</text>
    <text x="420" y="070">M48</text>

    <text x="320" y="770">M51</text>
    <text x="320" y="670">M52</text>
    <text x="320" y="570">M53</text>
    <text x="320" y="470">M54</text>
    <text x="320" y="370">M55</text>
    <text x="320" y="270">M56</text>
    <text x="320" y="170">M57</text>
    <text x="320" y="070">M58</text>
    
    <text x="220" y="770">M61</text>
    <text x="220" y="670">M62</text>
    <text x="220" y="570">M63</text>
    <text x="220" y="470">M64</text>
    <text x="220" y="370">M65</text>
    <text x="220" y="270">M66</text>
    <text x="220" y="170">M67</text>
    <text x="220" y="070">M68</text>             

    <text x="120" y="770">M71</text>
    <text x="120" y="670">M72</text>
    <text x="120" y="570">M73</text>
    <text x="120" y="470">M74</text>
    <text x="120" y="370">M75</text>
    <text x="120" y="270">M76</text>
    <text x="120" y="170">M77</text>
    <text x="120" y="070">M78</text>              
        
    <!--Insertian Area and Robotinos-->
    <rect id="insertArea1" x="1152" y="752" width="296" height="96" fill="lightgray"/>
    <text x="1220" y="840" font-size = "18" font-weight = "bold">Insertion Area CYAN</text>       
    <rect id="insertArea2" x="52" y="752" width="296" height="96" fill="lightgray"/>
    <text x="90" y="840" font-size = "18" font-weight = "bold">Insertion Area MAGENTA</text>
    
    <circle id="robi" cx="100" cy="800" r="23" fill="magenta" stroke-width="1" stroke="black" />
    <circle id="robi" cx="200" cy="800" r="23" fill="magenta" stroke-width="1" stroke="black" />
    <circle id="robi" cx="300" cy="800" r="23" fill="magenta" stroke-width="1" stroke="black" />
    <circle id="robi" cx="1200" cy="800" r="23" fill="cyan" stroke-width="1" stroke="black" />
    <circle id="robi" cx="1300" cy="800" r="23" fill="cyan" stroke-width="1" stroke="black" />
    <circle id="robi" cx="1400" cy="800" r="23" fill="cyan" stroke-width="1" stroke="black" />
    
    <text x="370" y="820">still in field</text>
    <circle id="robi" cx="400" cy="850" r="23" fill="green" stroke-width="1" stroke="black" />
    <circle id="robi" cx="500" cy="875" r="23" fill="red" stroke-width="1" stroke="black" />
    <text x="453" y="845">robot out of field</text>    
</svg>